Coordinates
version=1
nRows=14
nColumns=40
inDegrees=yes

Units are S.I. units (second, meters, Newtons, ...)
Angles are in degrees.

endheader
time	pelvis_tilt	pelvis_list	pelvis_rotation	pelvis_tx	pelvis_ty	pelvis_tz	hip_flexion_r	hip_adduction_r	hip_rotation_r	knee_angle_r	knee_angle_r_beta	ankle_angle_r	subtalar_angle_r	mtp_angle_r	hip_flexion_l	hip_adduction_l	hip_rotation_l	knee_angle_l	knee_angle_l_beta	ankle_angle_l	subtalar_angle_l	mtp_angle_l	lumbar_extension	lumbar_bending	lumbar_rotation	arm_flex_r	arm_add_r	arm_rot_r	elbow_flex_r	pro_sup_r	wrist_flex_r	wrist_dev_r	arm_flex_l	arm_add_l	arm_rot_l	elbow_flex_l	pro_sup_l	wrist_flex_l	wrist_dev_l
     49.31000000	     -3.87993896	     -5.24780872	     10.32810849	      0.90121236	      0.91626618	      0.53374114	      3.66945147	      5.79380917	    -17.87452279	     17.85870170	     17.85870170	     19.84935481	     -4.44377548	     -1.47106853	     30.09967700	     -8.56404529	      3.33369444	     24.40225373	     24.40225373	      4.65215299	     -9.94219193	      5.47065148	     -9.93250491	      3.70756054	      3.92466615	     51.87579840	    -20.10871287	    -12.31577880	     58.64727586	     45.25470507	      0.00000000	      0.00000000	    -18.97722038	     -7.88767583	     10.59329432	     31.26100276	     44.36386261	      0.00000000	      0.00000000
     49.33000000	     -3.98229878	     -5.43184392	     10.53562302	      0.90150088	      0.91538911	      0.53010207	      3.34165402	      5.78559809	    -18.03697341	     17.88784829	     17.88784829	     20.02750010	     -4.34021539	     -1.54307117	     30.20499947	     -8.51640464	      3.33672192	     25.04162479	     25.04162479	      4.56508769	    -10.13383211	      5.00817896	     -9.97785770	      3.74995212	      3.68319616	     52.84822595	    -19.87929916	    -12.08913157	     59.26908565	     45.23221130	      0.00000000	      0.00000000	    -18.41600916	     -7.78524489	     10.79854865	     31.04307163	     44.35804647	      0.00000000	      0.00000000
     49.35000000	     -4.13286752	     -5.54509418	     10.69206412	      0.90196238	      0.91469753	      0.52613034	      3.03392587	      5.66693319	    -18.13789437	     17.90982602	     17.90982602	     20.13802949	     -4.26301861	     -1.58372977	     30.33527901	     -8.34158168	      3.45868289	     25.78981431	     25.78981431	      4.55413340	    -10.59346110	      4.70942176	     -9.96827384	      3.70243063	      3.60607077	     53.60579746	    -19.84173682	    -11.93285916	     59.61876953	     45.22035783	      0.00000000	      0.00000000	    -17.73347990	     -7.81116599	     10.91463269	     30.93724269	     44.36258902	      0.00000000	      0.00000000
     49.37000000	     -4.27405031	     -5.64884148	     10.78638103	      0.90262138	      0.91422585	      0.52189890	      2.69117524	      5.51154441	    -18.23142238	     17.91974422	     17.91974422	     20.17704666	     -4.11950392	     -1.61134289	     30.47427069	     -8.12544249	      3.71627957	     26.67263409	     26.67263409	      4.64144585	    -11.27006104	      4.51251125	     -9.95765132	      3.66049053	      3.57467792	     54.21958459	    -19.84343862	    -11.79297794	     59.82212432	     45.21336565	      0.00000000	      0.00000000	    -16.98692427	     -7.87611172	     11.00439472	     30.85620951	     44.37068426	      0.00000000	      0.00000000
     49.39000000	     -4.47926458	     -5.65625029	     10.81531537	      0.90349464	      0.91399827	      0.51736172	      2.34515528	      5.22983064	    -18.22695115	     17.85597929	     17.85597929	     20.12768971	     -3.99581589	     -1.58660399	     30.53231994	     -7.80756574	      3.89071755	     27.40809630	     27.40809630	      4.84408282	    -11.79071890	      4.37087075	     -9.85456193	      3.53193258	      3.57887958	     54.60225797	    -19.76288458	    -11.70147036	     59.89512300	     45.21012809	      0.00000000	      0.00000000	    -16.20496508	     -7.98090665	     11.01959595	     30.96123997	     44.38436802	      0.00000000	      0.00000000
     49.41000000	     -4.53376366	     -5.92337500	     10.78242815	      0.90447676	      0.91381955	      0.51257592	      1.88104974	      5.17355617	    -18.45887907	     17.83381573	     17.83381573	     20.07958617	     -3.37085656	     -1.70936252	     30.69744397	     -7.61717577	      4.70224589	     28.56421205	     28.56421205	      5.11320476	    -13.22237429	      4.62567648	     -9.87728070	      3.79742653	      3.80671255	     55.16025610	    -20.04060744	    -11.58461649	     59.65498185	     45.22097097	      0.00000000	      0.00000000	    -15.49145556	     -8.05604293	     11.13163526	     30.75097539	     44.39334557	      0.00000000	      0.00000000
     49.43000000	     -4.78576074	     -5.87699444	     10.67388813	      0.90558342	      0.91401747	      0.50744289	      1.46556907	      4.67827456	    -18.95305983	     17.65742549	     17.65742549	     19.93626571	     -2.20480688	     -2.02928600	     30.66840998	     -7.06490436	      5.22663846	     29.20240459	     29.20240459	      5.66695705	    -14.58526113	      6.01028325	     -9.65645239	      3.71109236	      4.08629251	     55.51636884	    -20.32133647	    -11.32472313	     58.50229755	     45.26364963	      0.00000000	      0.00000000	    -14.41155565	     -8.24440513	     11.40042608	     30.33583650	     44.40833033	      0.00000000	      0.00000000
     49.45000000	     -4.95789631	     -5.91978492	     10.40033502	      0.90683406	      0.91424826	      0.50252306	      1.09275267	      4.36365510	    -18.73431634	     17.64131488	     17.64131488	     19.72204310	     -1.93098497	     -1.99827512	     30.58337780	     -6.85959009	      5.21096158	     29.88421713	     29.88421713	      6.16613038	    -15.05406244	      5.92247380	     -9.60738302	      3.70236358	      4.20384690	     55.60101929	    -20.14415034	    -11.26699348	     58.34523105	     45.26823139	      0.00000000	      0.00000000	    -13.85363308	     -8.47211539	     11.37405640	     30.48619659	     44.42420090	      0.00000000	      0.00000000
     49.47000000	     -5.12954003	     -6.03531759	     10.12141549	      0.90807544	      0.91459623	      0.49727458	      0.64549916	      3.99605062	    -19.19082164	     17.50337355	     17.50337355	     19.30372881	     -0.58853666	     -2.85279823	     30.63066784	     -6.60246585	      5.48774715	     30.86377773	     30.86377773	      7.99089850	    -15.44224099	      9.27792784	     -9.43197409	      3.84334731	      4.11807749	     56.65040431	    -19.75028973	    -11.50905730	     55.13995948	     45.41843822	      0.00000000	      0.00000000	    -13.56218298	     -8.80236456	     11.73659293	     31.09658094	     44.46889548	      0.00000000	      0.00000000
     49.49000000	     -5.27578696	     -6.13139544	      9.70584927	      0.90939259	      0.91514303	      0.49221078	      0.22303320	      3.67501556	    -19.15716805	     17.42610209	     17.42610209	     18.95276384	      0.11901546	     -2.98439824	     30.35612683	     -6.50045397	      5.35001877	     31.28432125	     31.28432125	      8.64801756	    -15.86828435	      9.50368340	     -9.36540104	      3.96301823	      4.61626867	     56.60211073	    -19.97553689	    -11.71910965	     54.15519139	     45.46707950	      0.00000000	      0.00000000	    -12.99011690	     -9.17069997	     11.61388218	     31.70799992	     44.51568670	      0.00000000	      0.00000000
     49.51000000	     -5.48821341	     -6.23244887	      9.24193720	      0.91063358	      0.91564155	      0.48711855	     -0.01917063	      3.34181072	    -18.87120616	     17.51201224	     17.51201224	     18.62282748	      0.47353553	     -2.97096620	     30.06026442	     -6.42293781	      5.12001881	     31.53241491	     31.53241491	      9.21523810	    -16.21658942	      9.38666720	     -9.24420417	      4.12026041	      4.72812417	     56.27784272	    -19.70399062	    -11.69485506	     53.79912085	     45.47738193	      0.00000000	      0.00000000	    -12.50767489	     -9.47881111	     11.54327731	     31.93850430	     44.53517725	      0.00000000	      0.00000000
     49.53000000	     -5.63349443	     -6.21424116	      8.75866281	      0.91182929	      0.91628967	      0.48188969	     -0.33002110	      2.72796702	    -19.28594325	     17.67612931	     17.67612931	     17.99590769	      1.84779176	     -4.37023042	     29.66512416	     -6.26908039	      4.70348189	     31.81886746	     31.81886746	     10.50137327	    -16.15448338	     10.91944242	     -9.09781922	      4.13496744	      4.47035706	     57.41303402	    -18.77150393	    -13.00102493	     48.95404566	     45.72361330	      0.00000000	      0.00000000	    -12.78762427	    -10.10056490	     11.57859172	     33.95803084	     44.61011708	      0.00000000	      0.00000000
     49.55000000	     -5.79327265	     -6.25012320	      8.21945420	      0.91289658	      0.91705688	      0.47684429	     -0.46349308	      2.26501751	    -19.00322921	     18.02174230	     18.02174230	     17.55144068	      2.19713827	     -4.62459587	     29.12671943	     -6.23785890	      4.15068028	     31.75748471	     31.75748471	     11.13762056	    -16.13523394	     10.82230236	     -9.02287461	      4.21754712	      4.81262415	     56.84204888	    -18.93016457	    -13.29883160	     47.78800707	     45.77854434	      0.00000000	      0.00000000	    -12.15653329	    -10.50811826	     11.40267998	     34.52864235	     44.66125779	      0.00000000	      0.00000000
     49.57000000	     -5.91622663	     -6.27307434	      7.70011257	      0.91387670	      0.91787583	      0.47176067	     -0.59329909	      1.77019414	    -18.81843789	     18.38377747	     18.38377747	     16.68675653	      2.47375838	     -6.15080479	     28.53316813	     -6.18379092	      3.59816702	     31.66390678	     31.66390678	     11.82495102	    -16.06791691	     10.85900192	     -8.90802993	      4.33125851	      4.48726682	     57.15571734	    -17.99943674	    -14.70539278	     44.19484574	     45.97823868	      0.00000000	      0.00000000	    -12.06255699	    -11.01906236	     11.35816484	     35.74268763	     44.76948252	      0.00000000	      0.00000000
